HIERARCHY
ROOT root
{
	OFFSET	0	13.1	24.9
	CHANNELS 6  Xposition Yposition Zposition Xrotation Yrotation Zrotation
	JOINT spine_1
	{
		OFFSET	0	9.99999	0
		CHANNELS 3  Xrotation Yrotation Zrotation
		JOINT spine_2
		{
			OFFSET	0	112	-10
			CHANNELS 3  Xrotation Yrotation Zrotation
			JOINT spine_3
			{
				OFFSET	0	206.5	19.3
				CHANNELS 3  Xrotation Yrotation Zrotation
				JOINT spine_4
				{
					OFFSET	0	110.4	14.6
					CHANNELS 3  Xrotation Yrotation Zrotation
					JOINT neck_1
					{
						OFFSET	0	71.8	-50.3
						CHANNELS 3  Xrotation Yrotation Zrotation
						JOINT neck_2
						{
							OFFSET	0	86.2	-25.8
							CHANNELS 3  Xrotation Yrotation Zrotation
							JOINT head_ee
							{
								OFFSET	0	179.8	-8.7
								CHANNELS 3  Xrotation Yrotation Zrotation
								End Site
								{
									OFFSET	1	0	0
								}
							}
						}
					}
					JOINT left_clavicle
					{
						OFFSET	-43.2	22.4	-70.8
						CHANNELS 3  Xrotation Yrotation Zrotation
						JOINT left_shoulder
						{
							OFFSET	-93.9	-5.79999	48.7
							CHANNELS 3  Xrotation Yrotation Zrotation
							JOINT left_elbow
							{
								OFFSET	-291.4	-30.8	15.2
								CHANNELS 3  Xrotation Yrotation Zrotation
								JOINT left_lowarm_twist
								{
									OFFSET	-110.7	-3.89999	13.6
									CHANNELS 3  Xrotation Yrotation Zrotation
									JOINT left_hand
									{
										OFFSET	-110.7	-3.89999	13.6
										CHANNELS 3  Xrotation Yrotation Zrotation
										JOINT left_ee
										{
											OFFSET	-80.8	-5.10001	12.1
											CHANNELS 3  Xrotation Yrotation Zrotation
											End Site
											{
												OFFSET	1	0	0
											}
										}
									}
								}
							}
						}
					}
					JOINT right_clavicle
					{
						OFFSET	43.2	22.4	-70.8
						CHANNELS 3  Xrotation Yrotation Zrotation
						JOINT right_shoulder
						{
							OFFSET	93.9	-5.79999	48.7
							CHANNELS 3  Xrotation Yrotation Zrotation
							JOINT right_elbow
							{
								OFFSET	291.4	-30.8	15.2
								CHANNELS 3  Xrotation Yrotation Zrotation
								JOINT right_lowarm_twist
								{
									OFFSET	110.7	-3.89999	13.6
									CHANNELS 3  Xrotation Yrotation Zrotation
									JOINT right_hand
									{
										OFFSET	110.7	-3.89999	13.6
										CHANNELS 3  Xrotation Yrotation Zrotation
										JOINT right_ee
										{
											OFFSET	80.8	-5.10001	12.1
											CHANNELS 3  Xrotation Yrotation Zrotation
											End Site
											{
												OFFSET	1	0	0
											}
										}
									}
								}
							}
						}
					}
				}
			}
		}
	}
	JOINT left_hip
	{
		OFFSET	-82.8	-127.5	0.300001
		CHANNELS 3  Xrotation Yrotation Zrotation
		JOINT left_knee
		{
			OFFSET	-28.2	-396.7	2.2
			CHANNELS 3  Xrotation Yrotation Zrotation
			JOINT left_ankle
			{
				OFFSET	-11.7	-411.3	35.4
				CHANNELS 3  Xrotation Yrotation Zrotation
				JOINT left_toes
				{
					OFFSET	0	-60	-88.6
					CHANNELS 3  Xrotation Yrotation Zrotation
					JOINT left_foot_ee
					{
						OFFSET	-22.5	-16.5	-42.2
						CHANNELS 3  Xrotation Yrotation Zrotation
						End Site
						{
							OFFSET	1	0	0
						}
					}
				}
			}
		}
	}
	JOINT right_hip
	{
		OFFSET	82.8	-127.5	0.300001
		CHANNELS 3  Xrotation Yrotation Zrotation
		JOINT right_knee
		{
			OFFSET	28.2	-396.7	2.2
			CHANNELS 3  Xrotation Yrotation Zrotation
			JOINT right_ankle
			{
				OFFSET	11.7	-411.3	35.4
				CHANNELS 3  Xrotation Yrotation Zrotation
				JOINT right_toes
				{
					OFFSET	0	-60	-88.6
					CHANNELS 3  Xrotation Yrotation Zrotation
					JOINT right_foot_ee
					{
						OFFSET	22.5	-16.5	-42.2
						CHANNELS 3  Xrotation Yrotation Zrotation
						End Site
						{
							OFFSET	1	0	0
						}
					}
				}
			}
		}
	}
}
MOTION
Frames: 5
Frame Time: 0.02
2706.95 724.316 -631.713 112.903 -84.3779 112.277 -1.39379 0.104264 -0.079064 -1.39379 0.109084 -0.0722692 -1.39394 0.122962 -0.0447501 -1.39393 0.114351 -0.0636079 -0.544488 4.37014 -0.144998 -0.501996 7.93461 0.336342 -0.0 0.0 -0.0 4.24266 0.946937 8.22929 6.38768 -29.2392 56.3515 3.33092 -58.7686 1.87604 27.4228 0.138793 -3.46703 -0.530803 2.23141 -2.5845 -0.0 0.0 -0.0 3.28155 -1.36781 -6.40855 -25.8175 25.7375 -64.0632 0.729282 19.863 -0.127695 -4.00171 0.158071 -0.486373 3.03067 -28.1772 -28.9259 0.0 0.0 0.0 -17.4658 33.4585 0.625613 -12.7193 0.311328 1.92313 16.1484 -5.68695 -2.30234 20.8454 -0.0 -0.0 -0.0 0.0 -0.0 22.382 22.9418 -0.0670022 -4.97765 -0.172703 -0.744159 11.2258 -27.7373 1.6898 -33.6563 0.0 0.0 0.0 0.0 0.0 
2727.71 721.978 -631.539 103.463 -83.6157 102.205 -1.58421 0.0733317 0.00656983 -1.58421 0.072765 0.0112228 -1.5842 0.0680285 0.0281571 -1.58419 0.0716216 0.0170599 -0.41206 4.37801 -0.275237 -0.366674 8.04767 0.190095 -0.0 0.0 -0.0 4.20232 1.04222 8.15581 5.36172 -29.2321 57.275 3.23699 -58.038 1.79603 27.282 0.142332 -3.4494 -0.509652 2.41169 -2.36649 -0.0 0.0 -0.0 3.32668 -1.47306 -6.50087 -25.386 25.9015 -64.2693 0.749157 20.3604 -0.134529 -3.76691 0.147859 -0.458144 3.07268 -28.1126 -29.1861 0.0 0.0 0.0 -18.9693 33.5926 0.999638 -13.3454 0.315555 2.0191 16.4277 -5.04856 -2.33332 20.7013 -0.0 -0.0 -0.0 0.0 -0.0 22.1817 22.8284 -0.401166 -6.29095 -0.207427 -0.94271 11.6653 -27.5713 1.75167 -33.2401 0.0 0.0 0.0 0.0 0.0 
2747.74 714.469 -626.292 108.65 -83.489 107.155 -1.65021 0.118529 0.052004 -1.65021 0.11498 0.0594409 -1.65009 0.0975082 0.0851223 -1.65009 0.109728 0.0686544 0.162894 4.4103 -0.419287 0.214855 8.19404 0.00454965 -0.0 0.0 -0.0 4.17636 1.12921 8.10974 4.71353 -29.0586 58.0702 3.14447 -57.2879 1.71786 27.1879 0.144673 -3.43761 -0.51697 2.87744 -2.21467 -0.0 0.0 -0.0 3.34373 -1.03833 -6.50795 -24.5687 26.5082 -64.4064 0.777019 21.0523 -0.144381 -3.65879 0.143196 -0.445133 3.09733 -28.1918 -29.3581 0.0 0.0 0.0 -19.5872 33.7658 0.519231 -13.7742 0.317845 2.08486 16.8695 -4.6136 -2.38737 20.5832 -0.0 -0.0 -0.0 0.0 -0.0 20.1541 23.0029 -0.0901184 -7.48064 -0.234945 -1.1232 12.0022 -27.3291 1.79757 -32.8303 0.0 0.0 0.0 0.0 0.0 
2773.34 726.258 -623.08 99.5425 -83.3103 97.3222 -1.74916 0.146537 0.0948728 -1.74917 0.140203 0.104005 -1.74891 0.111156 0.134604 -1.74891 0.131019 0.11536 0.110145 3.98923 -0.463994 0.153745 7.48329 -0.0838422 -0.0 0.0 -0.0 3.95525 1.67235 7.7109 1.62692 -28.6592 58.5397 3.00348 -56.0828 1.60002 27.1221 0.146299 -3.42936 -0.504549 3.12653 -2.02535 -0.0 0.0 -0.0 3.35192 -1.03242 -6.5233 -23.0321 26.567 -64.8176 0.798321 21.5769 -0.152124 -2.72823 0.104081 -0.332787 3.19398 -28.2923 -30.0009 0.0 0.0 0.0 -20.0422 33.3609 0.0227148 -14.0992 0.319253 2.13471 17.1569 -4.80315 -2.42657 20.5002 -0.0 -0.0 -0.0 0.0 -0.0 18.6207 23.091 0.107617 -8.29836 -0.251682 -1.24757 12.1 -27.2555 1.81082 -33.1432 0.0 0.0 0.0 0.0 0.0 
2797.85 727.925 -622.972 93.1862 -82.1573 90.3821 -1.72887 0.0163625 0.304856 -1.72882 -0.00306933 0.305279 -1.72879 -0.076118 0.295653 -1.72891 -0.02847 0.303964 0.317844 3.69264 -0.462749 0.356619 6.94561 -0.123775 -0.0 0.0 -0.0 3.89396 1.7686 7.59849 -0.41737 -28.4477 59.281 2.74396 -53.6489 1.38774 27.0834 0.147251 -3.42451 -0.519867 3.64722 -1.90288 -0.0 0.0 -0.0 3.23154 -0.980886 -6.28959 -22.2729 27.4669 -64.7572 0.811391 21.897 -0.156964 -2.31735 0.0873924 -0.282986 3.25612 -28.9198 -30.4977 0.0 0.0 0.0 -20.1568 33.1746 -0.536953 -14.3066 0.320004 2.16652 16.081 -3.80903 -2.27727 20.4372 -0.0 -0.0 -0.0 0.0 -0.0 16.1646 23.3308 0.891378 -12.1436 -0.306516 -1.83494 10.6423 -27.4075 1.60161 -33.3591 0.0 0.0 0.0 0.0 0.0 
